<svg xmlns="http://www.w3.org/2000/svg" xmlns:xlink="http://www.w3.org/1999/xlink" viewBox="0 0 35 32.03"><defs><style>.cls-1{fill:url(#未命名的渐变_4);}.cls-2{opacity:0.95;fill:url(#未命名的渐变_4-2);}.cls-3{fill:#fff;}</style><linearGradient id="未命名的渐变_4" x1="-27.85" y1="243.31" x2="-3.1" y2="243.31" gradientTransform="translate(40.38 -226.29) rotate(3)" gradientUnits="userSpaceOnUse"><stop offset="0" stop-color="#00c5ff"/><stop offset="1" stop-color="#0072ff"/></linearGradient><linearGradient id="未命名的渐变_4-2" x1="42.31" y1="-210.08" x2="67.07" y2="-210.08" gradientTransform="matrix(1, -0.05, 0.05, 1, -28.46, 228.93)" xlink:href="#未命名的渐变_4"/></defs><title>资源 2icon</title><g id="图层_2" data-name="图层 2"><g id="图层_1-2" data-name="图层 1"><path class="cls-1" d="M23.93,8.87A12.49,12.49,0,0,0,9,.36,12.49,12.49,0,0,0,.33,15.2c0,.12.06.25.1.38s.07.26.11.38c2.34,8.17,9.32,11.77,17,16.07,4.46-7.54,8.7-14.14,6.65-22.39,0-.13-.07-.26-.1-.39S24,9,23.93,8.87Z"/><path class="cls-2" d="M11.07,8.87A12.49,12.49,0,0,1,26,.36,12.49,12.49,0,0,1,34.67,15.2c0,.12-.06.25-.1.38s-.07.26-.11.38C32.12,24.13,25.14,27.73,17.51,32c-4.46-7.54-8.7-14.14-6.65-22.39,0-.13.07-.26.1-.39S11,9,11.07,8.87Z"/><rect class="cls-3" x="10.91" y="13.87" width="13.09" height="1.4" rx="0.7" ry="0.7"/><rect class="cls-3" x="11.36" y="13.87" width="12.2" height="1.4" rx="0.7" ry="0.7" transform="translate(2.89 32.03) rotate(-90)"/></g></g></svg>