<svg xmlns="http://www.w3.org/2000/svg" viewBox="0 0 68.44 19.87"><defs><style>.cls-1{fill:#fff;}</style></defs><title>资源 5234</title><g id="图层_2" data-name="图层 2"><g id="图层_1-2" data-name="图层 1"><path class="cls-1" d="M17.21,6.14,15.34,4.27H10.1V2.57h3.54L11.83.76a2.62,2.62,0,0,0-3.71,0L6.33,2.57H8.21v11H6.36V4.37H4.52L2.73,6.16H4.5v9.27h5.55v1.71h-4l2,2a2.62,2.62,0,0,0,3.71,0l1.95-1.95H11.89V11.68H10.06V9.84h3.67v7.28l1.84-1.84V8H10.06V6.14ZM.76,11.83l1.9,1.9V6.23L.78,8.12a2.62,2.62,0,0,0,0,3.71M19.11,8,17.22,6.15v7.47l1.87-1.87a2.62,2.62,0,0,0,0-3.71"/><polygon class="cls-1" points="33.04 3.22 33.04 7.74 31.85 9.6 31.85 3.22 33.04 3.22"/><rect class="cls-1" x="55.65" y="3.18" width="1.19" height="4.58"/><path class="cls-1" d="M38,13.32V12.13A1.14,1.14,0,0,0,39.14,11h1.19A2.34,2.34,0,0,1,38,13.32"/><rect class="cls-1" x="34.88" y="6.58" width="9.74" height="1.19"/><rect class="cls-1" x="34.62" y="3.18" width="10.26" height="1.19"/><rect class="cls-1" x="39.14" y="2.34" width="1.19" height="1.64"/><rect class="cls-1" x="34.62" y="3.81" width="1.19" height="1.64"/><rect class="cls-1" x="43.7" y="3.81" width="1.19" height="1.64"/><polyline class="cls-1" points="40.33 11.14 40.33 6.86 39.14 6.86 39.14 11.14"/><rect class="cls-1" x="53.2" y="2.34" width="1.19" height="9.56"/><rect class="cls-1" x="51.35" y="3.18" width="4.42" height="1.19"/><rect class="cls-1" x="51.35" y="8.28" width="5.39" height="1.19"/><rect class="cls-1" x="51.35" y="9.97" width="5.42" height="1.19"/><rect class="cls-1" x="51.35" y="4.88" width="5.93" height="1.19"/><rect class="cls-1" x="51.35" y="6.58" width="4.42" height="1.19"/><rect class="cls-1" x="46.82" y="4.31" width="1.19" height="9.01"/><polyline class="cls-1" points="54.59 13.32 56.77 13.32 56.77 12.13 52.25 12.13"/><path class="cls-1" d="M49.11,8.57l-1,.6a7.18,7.18,0,0,0,6.5,4.15V12.13a6,6,0,0,1-5.48-3.56"/><path class="cls-1" d="M51,6.6H48.35V7.79h1.43a11.75,11.75,0,0,1-1,4.34c-.08.23-.17.45-.27.67l1.08.5c.16-.36.3-.73.43-1.1a12.81,12.81,0,0,0,1-4.41c0-.2,0-.4,0-.6s0-.4,0-.59"/><path class="cls-1" d="M51,3.18H48.85a6.26,6.26,0,0,1-.43,1.19h1.34A4.64,4.64,0,0,1,48.35,6.6l.87.8a5.82,5.82,0,0,0,1.75-3h0c0-.19,0-.39,0-.59s0-.39,0-.59"/><path class="cls-1" d="M46.17,6.84a7.1,7.1,0,0,0,2.38-4.5H47.36a6,6,0,0,1-2,3.6Z"/><rect class="cls-1" x="37.17" y="12.13" width="1.2" height="1.19"/><path class="cls-1" d="M30.71,10.07V8.88a1.14,1.14,0,0,0,1.14-1.14H33a2.34,2.34,0,0,1-2.33,2.33"/><rect class="cls-1" x="23.74" y="2.8" width="9.3" height="1.19"/><rect class="cls-1" x="23.03" y="12.13" width="10.26" height="1.19"/><rect class="cls-1" x="27.55" y="3.22" width="1.19" height="9.24"/><rect class="cls-1" x="29.93" y="8.88" width="0.77" height="1.19"/><path class="cls-1" d="M62.82,13.68V12.49a.54.54,0,0,0,.54-.54h1.19a1.72,1.72,0,0,1-1.73,1.73"/><rect class="cls-1" x="58.54" y="3.15" width="9.85" height="1.19"/><rect class="cls-1" x="60.21" y="4.73" width="6.97" height="1.19"/><rect class="cls-1" x="60.26" y="6.3" width="8.18" height="1.19"/><rect class="cls-1" x="60.21" y="7.88" width="6.97" height="1.19"/><rect class="cls-1" x="66.69" y="4.73" width="1.19" height="4.34"/><rect class="cls-1" x="63.36" y="4.11" width="1.19" height="7.85"/><rect class="cls-1" x="63.36" y="2.34" width="1.19" height="1.52"/><polyline class="cls-1" points="59.73 8.76 59.73 8.06 59.73 3.72 58.54 3.72 58.54 10.88"/><path class="cls-1" d="M58.54,5.84V9a6,6,0,0,1-1.11,3.47l.85.85A7.13,7.13,0,0,0,59.73,9V5.84Z"/><path class="cls-1" d="M64.55,8.31H63.36A5.55,5.55,0,0,0,68.43,13V11.79a4.39,4.39,0,0,1-3.88-3.48"/><path class="cls-1" d="M67,9.28a4.32,4.32,0,0,1-1.6,1.26l.27,1.15A5.39,5.39,0,0,0,68,10Z"/><path class="cls-1" d="M62.7,9.67a7.56,7.56,0,0,1-2.45-.43l0,.12-.26.89a6.54,6.54,0,0,0,1.92.41,5.36,5.36,0,0,1-2.2,1.2l.27,1a6.34,6.34,0,0,0,3.29-2.13,6.13,6.13,0,0,0,.72-1.1c-.41,0,.22,0-1.24,0"/><rect class="cls-1" x="28.8" y="15.06" width="0.66" height="3.53"/><polygon class="cls-1" points="32.46 15.05 33.13 15.05 33.13 18.58 32.72 18.58 32.72 18.59 30.86 16.2 30.86 18.58 30.2 18.58 30.2 15.06 30.74 15.06 32.46 17.24 32.46 15.05"/><polygon class="cls-1" points="36.12 15.05 36.78 15.05 36.78 18.58 36.37 18.58 36.37 18.59 34.52 16.2 34.52 18.58 33.85 18.58 33.85 15.06 34.39 15.06 36.12 17.24 36.12 15.05"/><rect class="cls-1" x="37.46" y="15.06" width="0.66" height="3.53"/><polygon class="cls-1" points="41.13 15.05 41.79 15.05 41.79 18.58 41.38 18.58 41.38 18.59 39.52 16.2 39.52 18.58 38.86 18.58 38.86 15.06 39.4 15.06 41.13 17.24 41.13 15.05"/><path class="cls-1" d="M45.08,15.92a1.33,1.33,0,0,0-.89-.36A1.21,1.21,0,0,0,43,16.87,1.12,1.12,0,0,0,44.19,18a1.18,1.18,0,0,0,.79-.28v-.62h-.9v-.6h1.51V18a1.74,1.74,0,0,1-1.4.63,1.7,1.7,0,0,1-1.87-1.79A1.79,1.79,0,0,1,44.19,15a1.91,1.91,0,0,1,1.31.53Z"/><polygon class="cls-1" points="50.57 18.59 50.57 17.16 48.84 17.16 48.84 18.59 48.18 18.59 48.18 15.06 48.84 15.06 48.84 16.55 50.57 16.55 50.57 15.06 51.23 15.06 51.23 18.59 50.57 18.59"/><polygon class="cls-1" points="54.55 18.58 51.91 18.58 51.91 15.06 54.55 15.06 54.55 15.7 52.57 15.7 52.57 16.51 54.48 16.51 54.48 17.13 52.57 17.13 52.57 17.93 54.55 17.93 54.55 18.58"/><path class="cls-1" d="M57.94,17.92H56.1l-.3.66h-.72l1.58-3.52h.72L59,18.58h-.73ZM57,15.8l-.65,1.5h1.31Z"/><polygon class="cls-1" points="60.13 15.06 60.13 17.97 61.94 17.97 61.94 18.58 59.46 18.58 59.46 15.06 60.13 15.06"/><polygon class="cls-1" points="62.7 15.66 61.58 15.66 61.58 15.06 64.48 15.06 64.48 15.66 63.37 15.66 63.37 18.58 62.7 18.58 62.7 15.66"/><polygon class="cls-1" points="67.51 18.59 67.51 17.16 65.78 17.16 65.78 18.59 65.11 18.59 65.11 15.06 65.78 15.06 65.78 16.55 67.51 16.55 67.51 15.06 68.17 15.06 68.17 18.59 67.51 18.59"/><polygon class="cls-1" points="28.26 15.05 27.57 15.05 26.82 17.48 26.06 15.05 26.06 15.05 25.37 15.05 25.37 15.05 24.61 17.47 23.86 15.05 23.17 15.05 24.27 18.57 24.27 18.58 24.96 18.58 24.96 18.57 25.71 16.16 26.47 18.58 26.47 18.58 27.16 18.58 27.16 18.58 28.26 15.05"/></g></g></svg>