<svg xmlns="http://www.w3.org/2000/svg" xmlns:xlink="http://www.w3.org/1999/xlink" viewBox="0 0 84.52 84.52"><defs><style>.cls-1{fill:none;}.cls-2{clip-path:url(#clip-path);}.cls-3{fill:#e5e5e5;}.cls-4{fill:#661418;}.cls-5{fill:#f9d9c4;}.cls-6{fill:#fff;}.cls-7{fill:#f19cb4;}.cls-8{fill:#d6d4d4;}.cls-9{fill:#e6bc9e;}.cls-10{fill:#fffefa;}</style><clipPath id="clip-path" transform="translate(-0.12 -0.12)"><rect class="cls-1" width="84.76" height="84.76"/></clipPath></defs><title>资源 1234</title><g id="图层_2" data-name="图层 2"><g id="图层_1-2" data-name="图层 1"><g class="cls-2"><path class="cls-3" d="M84.62,41A42.26,42.26,0,1,1,43.76.14,42.27,42.27,0,0,1,84.62,41Z" transform="translate(-0.12 -0.12)"/></g><path class="cls-4" d="M26.61,18.13c3.08-5.45,8.08-9.84,15.48-10.37,6.62-.48,11.9,4.09,15.21,9.39A32.41,32.41,0,0,1,61,25.39c1,3.56.15,7.41,0,11.1a33,33,0,0,0,1.16,11.19c1.13,3.88,3.82,8,2.36,12.19-1.34,3.87-5.2,2.32-8,1.12-9.16-3.93-19.71-1.47-29.29-1.19-2.1.06-4.52-.88-4.92-3.27a4.82,4.82,0,0,1,0-1.2c.34-4.43,3-9.43,2.35-13.83a50,50,0,0,0-1.3-5c-1.63-6.36.11-12.82,3.28-18.42Z" transform="translate(-0.12 -0.12)"/><polygon class="cls-5" points="35.77 48.9 35.77 54.14 41.56 60.95 47.62 54.48 47.62 47.27 35.77 48.9 35.77 48.9"/><path class="cls-5" d="M27.25,21.51S24.32,34,24.66,36s6.26,8.57,6.26,8.57,4,7.29,10.62,7.63S53.8,44.8,53.8,44.8l2.11-2.11,4.29-6.47.54-8.17L49.85,18.93l-22.6,2.58Z" transform="translate(-0.12 -0.12)"/><path class="cls-4" d="M33.71,22.13s-.54,4.29-2,6a8,8,0,0,1-2.31,2s-3.75.55-3.27,4.29,2.59,4.7,2.59,4.7a39.72,39.72,0,0,0,1.56,4.08l.68,1.36c-.36-.73-4.22.61-5-.2a1.53,1.53,0,0,1-.27-.44,12.42,12.42,0,0,1-.52-3.12,21.85,21.85,0,0,0-1-3.3C20.06,25.13,28.28,8.75,42.09,7.76c12.32-.88,19.13,14.83,19.74,21.85s-3.47,15-3.47,15l-4.56.21A10.52,10.52,0,0,0,55,42.1a17.38,17.38,0,0,0,.52-2.68s2.31-1.5,2.93-3.2a5.36,5.36,0,0,0,0-3.34,59.71,59.71,0,0,1-14.1-4.13c-6.53-3-9-4.78-10.62-6.62Z" transform="translate(-0.12 -0.12)"/><path class="cls-6" d="M26.23,75.74H19.86S15.43,74.41,15.6,70s4.75-9.84,7-11.54S28.2,70.87,28.2,70.87l-2,4.87Z" transform="translate(-0.12 -0.12)"/><path class="cls-6" d="M58.49,75.74h6.37s4.42-1.33,4.25-5.79-4.74-9.84-7-11.54-5.61,12.46-5.61,12.46l2,4.87Z" transform="translate(-0.12 -0.12)"/><path class="cls-7" d="M22.59,58.37a22.45,22.45,0,0,1,2.75,8.52,71.68,71.68,0,0,1,.75,8.85H58.77a41.19,41.19,0,0,1,.47-9.12,48.58,48.58,0,0,1,2.65-8.25s-3.46-2.69-6.53-2.89-3.88.14-3.88.14c-2.81,1.08-5.92,1.94-8.54,3.4a2.42,2.42,0,0,1-1.49.45,2.6,2.6,0,0,1-.82-.36,18.2,18.2,0,0,0-5.48-2.32L31.67,56a13.87,13.87,0,0,0-5.38.94,24.16,24.16,0,0,0-3.7,1.48Z" transform="translate(-0.12 -0.12)"/><path class="cls-6" d="M33.92,58.07s-.27,8.24,2,9.81,12.19,2.11,13.28,0,1-10.83,1-10.83L43.43,59.2l-3.86-.31-5.65-.82Z" transform="translate(-0.12 -0.12)"/><polygon class="cls-8" points="36.04 54.5 31.82 56.81 37.61 65.32 41.83 60.08 46.32 65.32 51.63 56.47 47.89 54.5 41.96 59.53 36.04 54.5 36.04 54.5"/><path class="cls-9" d="M47.74,54.6V50.39a10.94,10.94,0,0,1-6.2,1.83,10.67,10.67,0,0,1-5.65-2.11v.81A29.14,29.14,0,0,0,46,56.48l1.76-1.88Z" transform="translate(-0.12 -0.12)"/><polygon class="cls-10" points="35.77 53.67 31.55 55.98 37.34 64.49 41.56 59.25 46.05 64.49 51.37 55.64 47.62 53.67 41.7 58.7 35.77 53.67 35.77 53.67"/></g></g></svg>